<?xml version="1.0" standalone="no"?>
<!DOCTYPE svg PUBLIC "-//W3C//DTD SVG 20010904//EN"
 "http://www.w3.org/TR/2001/REC-SVG-20010904/DTD/svg10.dtd">
<svg version="1.0" xmlns="http://www.w3.org/2000/svg"
 width="2125.000000pt" height="2125.000000pt" viewBox="0 0 2125.000000 2125.000000"
 preserveAspectRatio="xMidYMid meet">
<metadata>
Created by potrace 1.11, written by Peter Selinger 2001-2013
</metadata>
<g transform="translate(0.000000,2125.000000) scale(0.100000,-0.100000)"
fill="#000000" stroke="none">
<path d="M10798 19545 c-2 -1 -48 -5 -103 -8 -55 -4 -109 -8 -120 -10 -11 -3
-40 -8 -65 -12 -148 -23 -310 -76 -477 -155 -310 -148 -557 -363 -753 -655
-56 -83 -170 -303 -170 -327 0 -8 -4 -18 -9 -23 -8 -9 -44 -113 -56 -161 -51
-201 -67 -329 -66 -514 0 -80 2 -154 5 -165 2 -11 7 -47 11 -80 9 -76 37 -199
66 -293 12 -40 20 -74 17 -77 -2 -2 -21 -7 -42 -11 -21 -3 -48 -8 -60 -10 -11
-2 -37 -7 -56 -10 -37 -5 -69 -11 -110 -20 -14 -3 -41 -7 -60 -10 -19 -3 -51
-9 -70 -14 -19 -5 -53 -12 -75 -15 -22 -4 -49 -9 -60 -12 -11 -3 -29 -8 -40
-9 -11 -2 -40 -8 -65 -15 -25 -6 -56 -13 -70 -15 -14 -3 -52 -12 -85 -21 -33
-8 -67 -16 -76 -18 -8 -2 -69 -17 -135 -35 -65 -17 -126 -33 -134 -35 -96 -23
-564 -175 -695 -226 -33 -13 -62 -24 -65 -24 -3 -1 -14 -5 -25 -10 -11 -4 -58
-23 -105 -42 -88 -35 -123 -50 -201 -88 l-47 -22 -21 37 c-63 113 -382 395
-663 587 -29 20 -87 60 -128 88 -851 589 -1605 871 -1911 714 -48 -24 -71 -80
-68 -163 1 -34 5 -68 9 -76 8 -14 63 -268 75 -340 3 -19 8 -42 10 -50 2 -8 6
-33 10 -55 3 -22 8 -51 10 -65 8 -48 27 -165 30 -190 2 -14 6 -38 9 -55 4 -27
9 -61 22 -150 2 -16 6 -41 9 -55 2 -14 7 -45 10 -70 3 -25 7 -54 9 -65 2 -11
7 -47 11 -80 4 -32 9 -68 11 -80 2 -11 6 -38 8 -60 3 -22 7 -56 10 -75 6 -36
25 -181 32 -235 2 -16 6 -46 8 -65 9 -64 25 -186 31 -240 2 -19 11 -91 20
-160 16 -125 22 -172 30 -242 3 -21 7 -55 10 -75 2 -21 7 -65 11 -98 3 -33 8
-68 9 -77 2 -9 7 -46 10 -81 7 -63 6 -64 -27 -92 -168 -140 -470 -438 -624
-615 -103 -120 -218 -262 -295 -365 -24 -33 -47 -62 -50 -65 -15 -12 -260
-382 -294 -445 -6 -11 -23 -38 -37 -61 -156 -246 -380 -714 -494 -1031 l-47
-132 -974 0 c-624 -1 -981 -5 -993 -11 -23 -13 -48 -78 -58 -155 -4 -33 -7
-874 -7 -1870 0 -1806 0 -1810 21 -1845 11 -19 37 -45 58 -56 l38 -21 1021 -1
c562 0 1028 -1 1035 -1 6 -1 12 -11 12 -24 0 -20 36 -169 58 -242 60 -195 217
-494 389 -744 47 -68 222 -302 232 -311 3 -3 33 -39 66 -80 33 -41 74 -91 91
-110 176 -199 252 -279 474 -500 279 -278 305 -303 460 -440 58 -51 119 -105
135 -119 61 -55 342 -287 388 -321 l46 -35 1 -1685 c0 -927 3 -1702 6 -1724 7
-47 28 -99 47 -114 17 -14 3620 -23 3722 -10 85 11 115 26 131 64 11 26 13
205 13 969 0 515 1 939 3 941 2 2 44 -10 93 -27 215 -72 633 -159 900 -189
228 -25 267 -28 435 -37 248 -13 972 -5 999 11 4 2 56 7 116 10 61 4 124 9
140 11 17 2 75 9 130 15 55 6 116 13 135 15 19 3 58 7 85 10 62 8 69 9 240 35
265 40 675 120 875 170 47 11 96 23 110 26 14 3 46 11 72 19 l48 14 2 -1002
c3 -963 4 -1003 22 -1037 11 -19 26 -40 35 -47 12 -8 482 -11 1856 -10 l1840
2 40 21 c22 12 49 36 60 55 19 33 20 58 20 2086 l0 2053 90 92 c83 85 138 144
235 253 353 395 754 964 1005 1425 55 102 215 424 215 434 0 2 15 37 34 78 18
40 50 118 71 173 20 55 47 127 60 160 79 208 170 580 201 820 3 28 7 57 9 65
3 17 15 122 20 190 25 283 25 768 0 1046 -2 27 -7 76 -9 109 -11 116 -26 257
-31 278 -2 12 -7 47 -10 77 -13 127 -49 340 -111 670 -27 142 -168 697 -179
709 -2 2 19 21 48 44 242 188 534 499 694 737 66 98 167 274 188 328 11 27 25
44 39 47 228 49 375 98 532 175 383 188 627 488 698 857 15 77 16 333 2 393
-11 49 -18 80 -16 82 2 6 -41 122 -67 181 -52 119 -142 249 -231 335 -66 63
-261 209 -408 305 -405 265 -627 292 -716 88 -64 -148 -19 -202 324 -385 123
-66 272 -149 333 -184 257 -153 379 -353 370 -607 -6 -179 -74 -325 -220 -470
-177 -176 -331 -250 -438 -210 -11 5 -17 19 -18 41 -1 19 -2 42 -3 52 -31 303
-120 501 -314 699 -73 75 -211 182 -297 231 -128 73 -331 164 -397 178 -140
29 -318 9 -486 -56 -352 -135 -493 -471 -362 -862 128 -382 382 -604 890 -778
152 -52 236 -93 245 -119 23 -74 -151 -269 -563 -633 -19 -17 -35 -28 -37 -26
-3 3 -24 50 -68 149 -161 365 -630 1012 -1107 1524 -275 296 -594 580 -850
755 -12 8 -52 37 -88 63 -59 43 -355 242 -407 274 -11 7 -65 40 -120 75 -296
185 -802 451 -1145 602 -436 192 -956 379 -1357 486 -43 12 -103 28 -133 36
-30 9 -62 17 -70 19 -8 2 -72 17 -142 34 -69 17 -137 32 -150 35 -13 2 -81 16
-153 31 -71 15 -141 29 -155 31 -44 8 -80 16 -80 18 0 1 9 28 20 59 39 111 75
266 87 375 10 87 10 358 0 447 -33 300 -182 667 -357 885 -8 11 -26 34 -39 52
-32 44 -234 244 -291 289 -279 220 -656 370 -990 394 -134 9 -209 13 -212 10z
m8055 -4702 c296 -67 487 -249 575 -548 26 -85 29 -106 38 -206 l6 -79 -110 0
c-379 0 -646 163 -780 476 -36 86 -69 214 -78 307 l-6 68 147 -2 c80 -1 174
-8 208 -16z"/>
</g>
</svg>
